<mxfile host="app.diagrams.net" agent="Mozilla/5.0 (X11; Linux x86_64) AppleWebKit/537.36 (KHTML, like Gecko) Chrome/129.0.0.0 Safari/537.36" version="24.7.16">
  <diagram name="Página-1" id="uJrBAzATo333ZaOnw0ur">
    <mxGraphModel dx="26620" dy="16600" grid="1" gridSize="10" guides="1" tooltips="1" connect="1" arrows="1" fold="1" page="1" pageScale="1" pageWidth="1500" pageHeight="2000" math="0" shadow="0">
      <root>
        <mxCell id="0" />
        <mxCell id="1" parent="0" />
        <mxCell id="gnkaqfE58BtBJmnsjo4r-6" value="Funcionario" style="html=1;overflow=block;blockSpacing=1;shape=umlActor;labelPosition=center;verticalLabelPosition=bottom;verticalAlign=top;whiteSpace=nowrap;fontSize=52;spacing=0;rounded=1;absoluteArcSize=1;arcSize=9;fillColor=none;strokeWidth=9;lucidId=dhcdZfQkDWk0;" parent="1" vertex="1">
          <mxGeometry x="-1140" y="45" width="138" height="255" as="geometry" />
        </mxCell>
        <mxCell id="gnkaqfE58BtBJmnsjo4r-196" style="edgeStyle=orthogonalEdgeStyle;rounded=0;orthogonalLoop=1;jettySize=auto;html=1;fontFamily=Helvetica;fontSize=12;fontColor=default;endArrow=classic;endFill=1;strokeWidth=9;" parent="1" source="gnkaqfE58BtBJmnsjo4r-7" edge="1">
          <mxGeometry relative="1" as="geometry">
            <mxPoint x="80" y="172.5" as="targetPoint" />
          </mxGeometry>
        </mxCell>
        <mxCell id="gnkaqfE58BtBJmnsjo4r-7" value="Gerente" style="html=1;overflow=block;blockSpacing=1;shape=umlActor;labelPosition=center;verticalLabelPosition=bottom;verticalAlign=top;whiteSpace=nowrap;fontSize=52;spacing=0;rounded=1;absoluteArcSize=1;arcSize=9;fillColor=none;strokeWidth=9;lucidId=Djcd-51i~yfi;" parent="1" vertex="1">
          <mxGeometry x="-435" y="45" width="138" height="255" as="geometry" />
        </mxCell>
        <mxCell id="gnkaqfE58BtBJmnsjo4r-8" value="" style="html=1;jettySize=18;whiteSpace=wrap;fontSize=52;strokeWidth=9;rounded=1;arcSize=12;edgeStyle=orthogonalEdgeStyle;startArrow=none;lucidId=bkcdIDjzHaLn;fillColor=none;" parent="1" edge="1">
          <mxGeometry width="100" height="100" relative="1" as="geometry">
            <Array as="points">
              <mxPoint x="-1067" y="173" />
            </Array>
            <mxPoint x="-945" y="173" as="sourcePoint" />
            <mxPoint x="-480" y="173" as="targetPoint" />
          </mxGeometry>
        </mxCell>
        <mxCell id="gnkaqfE58BtBJmnsjo4r-10" value="Gerente de&amp;nbsp;&lt;div style=&quot;font-size: 52px;&quot;&gt;Negócios&lt;/div&gt;" style="html=1;overflow=block;blockSpacing=1;shape=umlActor;labelPosition=center;verticalLabelPosition=bottom;verticalAlign=top;whiteSpace=nowrap;fontSize=52;spacing=0;rounded=1;absoluteArcSize=1;arcSize=9;fillColor=none;strokeWidth=9;lucidId=Kkcd_lmus3rN;" parent="1" vertex="1">
          <mxGeometry x="122" y="-1065" width="138" height="255" as="geometry" />
        </mxCell>
        <mxCell id="gnkaqfE58BtBJmnsjo4r-11" value="" style="html=1;jettySize=18;whiteSpace=wrap;fontSize=52;strokeWidth=9;rounded=1;arcSize=12;edgeStyle=orthogonalEdgeStyle;startArrow=none;exitX=0.5;exitY=-0.015;exitPerimeter=0;lucidId=5kcdnF7-QhT0;fillColor=none;endArrow=classic;endFill=1;" parent="1" edge="1">
          <mxGeometry width="100" height="100" relative="1" as="geometry">
            <Array as="points">
              <mxPoint x="-385" y="-120" />
              <mxPoint x="-379" y="-120" />
              <mxPoint x="-379" y="-937" />
            </Array>
            <mxPoint x="62" y="-937" as="targetPoint" />
            <mxPoint x="-385" y="-258.8250000000007" as="sourcePoint" />
          </mxGeometry>
        </mxCell>
        <mxCell id="gnkaqfE58BtBJmnsjo4r-82" style="edgeStyle=orthogonalEdgeStyle;rounded=0;orthogonalLoop=1;jettySize=auto;html=1;entryX=0;entryY=0.5;entryDx=0;entryDy=0;fontFamily=Helvetica;fontSize=52;fontColor=default;strokeWidth=9;fillColor=none;endArrow=none;endFill=0;" parent="1" source="gnkaqfE58BtBJmnsjo4r-12" target="gnkaqfE58BtBJmnsjo4r-23" edge="1">
          <mxGeometry relative="1" as="geometry">
            <Array as="points">
              <mxPoint x="970" y="202" />
              <mxPoint x="970" y="292" />
            </Array>
          </mxGeometry>
        </mxCell>
        <mxCell id="gnkaqfE58BtBJmnsjo4r-12" value="Gerente de inventário&lt;div style=&quot;font-size: 52px;&quot;&gt;&amp;nbsp;e Processos&lt;/div&gt;" style="html=1;overflow=block;blockSpacing=1;shape=umlActor;labelPosition=center;verticalLabelPosition=bottom;verticalAlign=top;whiteSpace=nowrap;fontSize=52;spacing=0;rounded=1;absoluteArcSize=1;arcSize=9;fillColor=none;strokeWidth=9;lucidId=plcdrG2M4cJR;align=center;" parent="1" vertex="1">
          <mxGeometry x="120" y="75" width="138" height="255" as="geometry" />
        </mxCell>
        <mxCell id="gnkaqfE58BtBJmnsjo4r-16" value="Atendente" style="html=1;overflow=block;blockSpacing=1;shape=umlActor;labelPosition=center;verticalLabelPosition=bottom;verticalAlign=top;whiteSpace=nowrap;fontSize=52;spacing=0;rounded=1;absoluteArcSize=1;arcSize=9;fillColor=none;strokeWidth=9;lucidId=YncdPASb2~EH;" parent="1" vertex="1">
          <mxGeometry x="176" y="-1605" width="138" height="255" as="geometry" />
        </mxCell>
        <mxCell id="gnkaqfE58BtBJmnsjo4r-17" value="" style="html=1;jettySize=18;whiteSpace=wrap;fontSize=52;strokeWidth=9;rounded=1;arcSize=12;edgeStyle=orthogonalEdgeStyle;startArrow=none;lucidId=_ncdG-t.Hgij;fillColor=none;endArrow=classic;endFill=1;" parent="1" edge="1">
          <mxGeometry width="100" height="100" relative="1" as="geometry">
            <Array as="points">
              <mxPoint x="-1090" y="-1455" />
            </Array>
            <mxPoint x="116" y="-1455" as="targetPoint" />
            <mxPoint x="-1090" y="-40" as="sourcePoint" />
          </mxGeometry>
        </mxCell>
        <mxCell id="gnkaqfE58BtBJmnsjo4r-648" style="rounded=0;orthogonalLoop=1;jettySize=auto;html=1;entryX=0;entryY=0;entryDx=0;entryDy=0;fontFamily=Helvetica;fontSize=12;fontColor=default;strokeWidth=9;dashed=1;dashPattern=8 8;" parent="1" source="gnkaqfE58BtBJmnsjo4r-19" target="gnkaqfE58BtBJmnsjo4r-52" edge="1">
          <mxGeometry relative="1" as="geometry" />
        </mxCell>
        <mxCell id="gnkaqfE58BtBJmnsjo4r-19" value="Cadastra hóspede" style="html=1;overflow=block;blockSpacing=1;whiteSpace=wrap;ellipse;fontSize=52;spacing=3.8;rounded=1;absoluteArcSize=1;arcSize=9;fillColor=none;strokeWidth=9;lucidId=DocdLys_JZiH;" parent="1" vertex="1">
          <mxGeometry x="1046" y="-1815" width="645" height="345" as="geometry" />
        </mxCell>
        <mxCell id="gnkaqfE58BtBJmnsjo4r-20" value="" style="html=1;jettySize=18;whiteSpace=wrap;fontSize=52;strokeWidth=9;rounded=1;arcSize=12;edgeStyle=orthogonalEdgeStyle;startArrow=none;endArrow=none;entryX=-0.006;entryY=0.5;entryPerimeter=0;lucidId=cpcdgIZXFv_m;fillColor=none;" parent="1" target="gnkaqfE58BtBJmnsjo4r-19" edge="1">
          <mxGeometry width="100" height="100" relative="1" as="geometry">
            <Array as="points" />
            <mxPoint x="371" y="-1470" as="sourcePoint" />
          </mxGeometry>
        </mxCell>
        <mxCell id="gnkaqfE58BtBJmnsjo4r-21" value="Cadastra convenio com operadoras de turismo e empresas" style="html=1;overflow=block;blockSpacing=1;whiteSpace=wrap;ellipse;fontSize=52;spacing=3.8;rounded=1;absoluteArcSize=1;arcSize=9;fillColor=none;strokeWidth=9;lucidId=ppcdXsXDfB30;" parent="1" vertex="1">
          <mxGeometry x="960" y="-1440" width="704" height="345" as="geometry" />
        </mxCell>
        <mxCell id="gnkaqfE58BtBJmnsjo4r-22" value="" style="html=1;jettySize=18;whiteSpace=wrap;fontSize=52;strokeWidth=9;rounded=1;arcSize=12;edgeStyle=orthogonalEdgeStyle;startArrow=none;endArrow=none;entryX=-0.005;entryY=0.5;entryPerimeter=0;lucidId=ppcddyxYoiO.;fillColor=none;" parent="1" target="gnkaqfE58BtBJmnsjo4r-21" edge="1">
          <mxGeometry width="100" height="100" relative="1" as="geometry">
            <Array as="points">
              <mxPoint x="621" y="-884" />
              <mxPoint x="621" y="-1280" />
              <mxPoint x="948" y="-1280" />
              <mxPoint x="948" y="-1270" />
              <mxPoint x="997" y="-1270" />
            </Array>
            <mxPoint x="347" y="-885" as="sourcePoint" />
          </mxGeometry>
        </mxCell>
        <mxCell id="gnkaqfE58BtBJmnsjo4r-23" value="Cadastra quartos e equipamentos" style="html=1;overflow=block;blockSpacing=1;whiteSpace=wrap;ellipse;fontSize=52;spacing=3.8;rounded=1;absoluteArcSize=1;arcSize=9;fillColor=none;strokeWidth=9;lucidId=kqcdeaaTe-Xc;" parent="1" vertex="1">
          <mxGeometry x="1035.5" y="120" width="704" height="345" as="geometry" />
        </mxCell>
        <mxCell id="gnkaqfE58BtBJmnsjo4r-25" value="Registra valores de Diária em cada período" style="html=1;overflow=block;blockSpacing=1;whiteSpace=wrap;ellipse;fontSize=52;spacing=3.8;rounded=1;absoluteArcSize=1;arcSize=9;fillColor=none;strokeWidth=9;lucidId=VscdY_612fUA;" parent="1" vertex="1">
          <mxGeometry x="970" y="-640" width="704" height="345" as="geometry" />
        </mxCell>
        <mxCell id="gnkaqfE58BtBJmnsjo4r-26" value="" style="html=1;jettySize=18;whiteSpace=wrap;fontSize=52;strokeWidth=9;rounded=1;arcSize=12;edgeStyle=orthogonalEdgeStyle;startArrow=none;endArrow=none;exitX=-0.005;exitY=0.5;exitPerimeter=0;lucidId=8scdR_2cczW8;fillColor=none;" parent="1" source="gnkaqfE58BtBJmnsjo4r-25" edge="1">
          <mxGeometry width="100" height="100" relative="1" as="geometry">
            <Array as="points" />
            <mxPoint x="609" y="-885" as="targetPoint" />
          </mxGeometry>
        </mxCell>
        <mxCell id="gnkaqfE58BtBJmnsjo4r-27" value="Gerente de Recursos&lt;div style=&quot;font-size: 52px;&quot;&gt;&amp;nbsp;Humanos&lt;/div&gt;" style="html=1;overflow=block;blockSpacing=1;shape=umlActor;labelPosition=center;verticalLabelPosition=bottom;verticalAlign=top;whiteSpace=nowrap;fontSize=52;spacing=0;rounded=1;absoluteArcSize=1;arcSize=9;fillColor=none;strokeWidth=9;lucidId=qucdIOakeKyN;align=center;" parent="1" vertex="1">
          <mxGeometry x="90" y="1230" width="138" height="255" as="geometry" />
        </mxCell>
        <mxCell id="gnkaqfE58BtBJmnsjo4r-28" value="Cadastra funcionarios e Escalas" style="html=1;overflow=block;blockSpacing=1;whiteSpace=wrap;ellipse;fontSize=52;spacing=3.8;rounded=1;absoluteArcSize=1;arcSize=9;fillColor=none;strokeWidth=9;lucidId=dvcddmE53v4o;" parent="1" vertex="1">
          <mxGeometry x="870" y="1005" width="704" height="345" as="geometry" />
        </mxCell>
        <mxCell id="gnkaqfE58BtBJmnsjo4r-29" value="" style="html=1;jettySize=18;whiteSpace=wrap;fontSize=52;strokeWidth=9;rounded=1;arcSize=12;edgeStyle=orthogonalEdgeStyle;startArrow=none;endArrow=none;exitX=-0.005;exitY=0.5;exitPerimeter=0;lucidId=ivcd9-MBvtOg;fillColor=none;" parent="1" source="gnkaqfE58BtBJmnsjo4r-28" edge="1">
          <mxGeometry width="100" height="100" relative="1" as="geometry">
            <Array as="points" />
            <mxPoint x="285" y="1350" as="targetPoint" />
          </mxGeometry>
        </mxCell>
        <mxCell id="gnkaqfE58BtBJmnsjo4r-31" value="Cadastra espaçõs e eventos" style="html=1;overflow=block;blockSpacing=1;whiteSpace=wrap;ellipse;fontSize=52;spacing=3.8;rounded=1;absoluteArcSize=1;arcSize=9;fillColor=none;strokeWidth=9;lucidId=WzcdXngbt~H~;" parent="1" vertex="1">
          <mxGeometry x="1020" y="550" width="704" height="345" as="geometry" />
        </mxCell>
        <mxCell id="gnkaqfE58BtBJmnsjo4r-32" value="" style="html=1;jettySize=18;whiteSpace=wrap;fontSize=52;strokeWidth=9;rounded=1;arcSize=12;edgeStyle=orthogonalEdgeStyle;startArrow=none;endArrow=none;exitX=-0.005;exitY=0.5;exitPerimeter=0;lucidId=3AcdsqHbFX.m;fillColor=none;" parent="1" source="gnkaqfE58BtBJmnsjo4r-31" edge="1">
          <mxGeometry width="100" height="100" relative="1" as="geometry">
            <Array as="points">
              <mxPoint x="800" y="693" />
              <mxPoint x="800" y="210" />
            </Array>
            <mxPoint x="790" y="210" as="targetPoint" />
          </mxGeometry>
        </mxCell>
        <mxCell id="gnkaqfE58BtBJmnsjo4r-33" value="Organiza e cadastra eventos e reuniões" style="html=1;overflow=block;blockSpacing=1;whiteSpace=wrap;ellipse;fontSize=52;spacing=3.8;rounded=1;absoluteArcSize=1;arcSize=9;fillColor=none;strokeWidth=9;lucidId=CBcdQI~2sIBX;" parent="1" vertex="1">
          <mxGeometry x="870" y="1560" width="704" height="345" as="geometry" />
        </mxCell>
        <mxCell id="gnkaqfE58BtBJmnsjo4r-34" value="" style="html=1;jettySize=18;whiteSpace=wrap;fontSize=52;strokeWidth=9;rounded=1;arcSize=12;edgeStyle=orthogonalEdgeStyle;startArrow=none;endArrow=none;exitX=-0.005;exitY=0.5;exitPerimeter=0;lucidId=MBcdMKAVMKU4;fillColor=none;" parent="1" source="gnkaqfE58BtBJmnsjo4r-33" edge="1">
          <mxGeometry width="100" height="100" relative="1" as="geometry">
            <Array as="points" />
            <mxPoint x="570" y="1350" as="targetPoint" />
          </mxGeometry>
        </mxCell>
        <mxCell id="gnkaqfE58BtBJmnsjo4r-194" style="edgeStyle=orthogonalEdgeStyle;rounded=0;orthogonalLoop=1;jettySize=auto;html=1;fontFamily=Helvetica;fontSize=12;fontColor=default;strokeWidth=9;endArrow=none;endFill=0;" parent="1" source="gnkaqfE58BtBJmnsjo4r-35" edge="1">
          <mxGeometry relative="1" as="geometry">
            <mxPoint x="550" y="2738" as="targetPoint" />
          </mxGeometry>
        </mxCell>
        <mxCell id="gnkaqfE58BtBJmnsjo4r-35" value="Chef de restaurante" style="html=1;overflow=block;blockSpacing=1;shape=umlActor;labelPosition=center;verticalLabelPosition=bottom;verticalAlign=top;whiteSpace=nowrap;fontSize=52;spacing=0;rounded=1;absoluteArcSize=1;arcSize=9;fillColor=none;strokeWidth=9;lucidId=ECcdKnjGr7EQ;" parent="1" vertex="1">
          <mxGeometry x="90" y="2610" width="138" height="255" as="geometry" />
        </mxCell>
        <mxCell id="gnkaqfE58BtBJmnsjo4r-37" value="" style="html=1;jettySize=18;whiteSpace=wrap;fontSize=52;strokeWidth=9;rounded=1;arcSize=12;edgeStyle=orthogonalEdgeStyle;startArrow=none;endArrow=classic;lucidId=UCcd2oop5OOD;fillColor=none;endFill=1;" parent="1" edge="1">
          <mxGeometry width="100" height="100" relative="1" as="geometry">
            <Array as="points">
              <mxPoint x="-1140" y="375" />
              <mxPoint x="-1140" y="2738" />
            </Array>
            <mxPoint x="-1080" y="375" as="sourcePoint" />
            <mxPoint x="75" y="2738" as="targetPoint" />
          </mxGeometry>
        </mxCell>
        <mxCell id="gnkaqfE58BtBJmnsjo4r-38" value="Controla estoque e dispensa do room service" style="html=1;overflow=block;blockSpacing=1;whiteSpace=wrap;ellipse;fontSize=52;spacing=3.8;rounded=1;absoluteArcSize=1;arcSize=9;fillColor=none;strokeWidth=9;lucidId=RDcdJreU1p-L;" parent="1" vertex="1">
          <mxGeometry x="855" y="2080" width="704" height="345" as="geometry" />
        </mxCell>
        <mxCell id="gnkaqfE58BtBJmnsjo4r-40" value="Cadatra cardapios do restaurante e do room service" style="html=1;overflow=block;blockSpacing=1;whiteSpace=wrap;ellipse;fontSize=52;spacing=3.8;rounded=1;absoluteArcSize=1;arcSize=9;fillColor=none;strokeWidth=9;lucidId=tEcdR2Hr91C0;" parent="1" vertex="1">
          <mxGeometry x="855" y="2490" width="704" height="345" as="geometry" />
        </mxCell>
        <mxCell id="gnkaqfE58BtBJmnsjo4r-41" value="Faz baixas no estoque" style="html=1;overflow=block;blockSpacing=1;whiteSpace=wrap;ellipse;fontSize=52;spacing=3.8;rounded=1;absoluteArcSize=1;arcSize=9;fillColor=none;strokeWidth=9;lucidId=RFcd6PAY-MK_;" parent="1" vertex="1">
          <mxGeometry x="789" y="4508" width="704" height="345" as="geometry" />
        </mxCell>
        <mxCell id="gnkaqfE58BtBJmnsjo4r-77" style="edgeStyle=orthogonalEdgeStyle;rounded=0;orthogonalLoop=1;jettySize=auto;html=1;entryX=0;entryY=0.5;entryDx=0;entryDy=0;fontFamily=Helvetica;fontSize=52;fontColor=default;strokeWidth=9;endArrow=none;endFill=0;fillColor=none;" parent="1" source="gnkaqfE58BtBJmnsjo4r-42" target="gnkaqfE58BtBJmnsjo4r-41" edge="1">
          <mxGeometry relative="1" as="geometry" />
        </mxCell>
        <mxCell id="gnkaqfE58BtBJmnsjo4r-42" value="Garçon e atendentes&lt;div style=&quot;font-size: 52px;&quot;&gt;&amp;nbsp;do restaurante&lt;/div&gt;" style="html=1;overflow=block;blockSpacing=1;shape=umlActor;labelPosition=center;verticalLabelPosition=bottom;verticalAlign=top;whiteSpace=nowrap;fontSize=52;spacing=0;rounded=1;absoluteArcSize=1;arcSize=9;fillColor=none;strokeWidth=9;lucidId=2FcdAAeAINHJ;" parent="1" vertex="1">
          <mxGeometry x="24" y="4553" width="138" height="255" as="geometry" />
        </mxCell>
        <mxCell id="gnkaqfE58BtBJmnsjo4r-43" value="" style="html=1;jettySize=18;whiteSpace=wrap;fontSize=52;strokeWidth=9;rounded=1;arcSize=12;edgeStyle=orthogonalEdgeStyle;startArrow=classic;endArrow=none;lucidId=8FcdpJ3LcOLb;fillColor=none;endFill=0;startFill=1;" parent="1" edge="1">
          <mxGeometry width="100" height="100" relative="1" as="geometry">
            <Array as="points">
              <mxPoint x="-1140" y="4671" />
            </Array>
            <mxPoint x="-51" y="4673" as="sourcePoint" />
            <mxPoint x="-1074" y="2738" as="targetPoint" />
          </mxGeometry>
        </mxCell>
        <mxCell id="gnkaqfE58BtBJmnsjo4r-44" value="" style="html=1;jettySize=18;whiteSpace=wrap;fontSize=52;strokeWidth=9;rounded=1;arcSize=12;edgeStyle=orthogonalEdgeStyle;startArrow=none;endArrow=none;exitX=-0.005;exitY=0.5;exitPerimeter=0;lucidId=8GcdyS31ROrJ;fillColor=none;" parent="1" source="gnkaqfE58BtBJmnsjo4r-40" edge="1">
          <mxGeometry width="100" height="100" relative="1" as="geometry">
            <Array as="points">
              <mxPoint x="551" y="2663" />
            </Array>
            <mxPoint x="551" y="2730" as="targetPoint" />
          </mxGeometry>
        </mxCell>
        <mxCell id="gnkaqfE58BtBJmnsjo4r-45" value="" style="html=1;jettySize=18;whiteSpace=wrap;fontSize=52;strokeWidth=9;rounded=1;arcSize=12;edgeStyle=orthogonalEdgeStyle;startArrow=none;endArrow=none;exitX=0.5;exitY=-0.011;exitPerimeter=0;lucidId=YIcdNx1lD2dl;fillColor=none;" parent="1" source="gnkaqfE58BtBJmnsjo4r-41" edge="1">
          <mxGeometry width="100" height="100" relative="1" as="geometry">
            <Array as="points">
              <mxPoint x="1141" y="4470" />
              <mxPoint x="1136" y="4470" />
              <mxPoint x="1136" y="4140" />
              <mxPoint x="551" y="4140" />
              <mxPoint x="551" y="3677" />
            </Array>
            <mxPoint x="554" y="2730" as="targetPoint" />
          </mxGeometry>
        </mxCell>
        <mxCell id="gnkaqfE58BtBJmnsjo4r-205" style="edgeStyle=orthogonalEdgeStyle;rounded=0;orthogonalLoop=1;jettySize=auto;html=1;entryX=1;entryY=0.5;entryDx=0;entryDy=0;fontFamily=Helvetica;fontSize=12;fontColor=default;strokeWidth=9;endArrow=none;endFill=0;" parent="1" source="gnkaqfE58BtBJmnsjo4r-46" target="gnkaqfE58BtBJmnsjo4r-47" edge="1">
          <mxGeometry relative="1" as="geometry">
            <Array as="points">
              <mxPoint x="6102" y="1840" />
              <mxPoint x="6102" y="2658" />
            </Array>
          </mxGeometry>
        </mxCell>
        <mxCell id="gnkaqfE58BtBJmnsjo4r-206" style="edgeStyle=orthogonalEdgeStyle;rounded=0;orthogonalLoop=1;jettySize=auto;html=1;entryX=1;entryY=0.5;entryDx=0;entryDy=0;fontFamily=Helvetica;fontSize=12;fontColor=default;strokeWidth=9;endArrow=none;endFill=0;" parent="1" source="gnkaqfE58BtBJmnsjo4r-46" target="gnkaqfE58BtBJmnsjo4r-52" edge="1">
          <mxGeometry relative="1" as="geometry">
            <Array as="points">
              <mxPoint x="5509" y="1830" />
            </Array>
          </mxGeometry>
        </mxCell>
        <mxCell id="gnkaqfE58BtBJmnsjo4r-690" style="edgeStyle=orthogonalEdgeStyle;rounded=0;orthogonalLoop=1;jettySize=auto;html=1;fontFamily=Helvetica;fontSize=12;fontColor=default;strokeWidth=9;endArrow=none;endFill=0;" parent="1" edge="1">
          <mxGeometry relative="1" as="geometry">
            <mxPoint x="6740" y="1600" as="sourcePoint" />
            <mxPoint x="6730" y="379.9954313495254" as="targetPoint" />
            <Array as="points">
              <mxPoint x="6730" y="1600" />
            </Array>
          </mxGeometry>
        </mxCell>
        <mxCell id="gnkaqfE58BtBJmnsjo4r-46" value="Hóspede" style="html=1;overflow=block;blockSpacing=1;shape=umlActor;labelPosition=center;verticalLabelPosition=bottom;verticalAlign=top;whiteSpace=nowrap;fontSize=52;spacing=0;rounded=1;absoluteArcSize=1;arcSize=9;fillColor=none;strokeWidth=9;lucidId=nJcd4aM7w7-o;" parent="1" vertex="1">
          <mxGeometry x="6660" y="1710" width="138" height="255" as="geometry" />
        </mxCell>
        <mxCell id="gnkaqfE58BtBJmnsjo4r-47" value="Faz pedido no restaurante" style="html=1;overflow=block;blockSpacing=1;whiteSpace=wrap;ellipse;fontSize=52;spacing=3.8;rounded=1;absoluteArcSize=1;arcSize=9;fillColor=none;strokeWidth=9;lucidId=JJcdyQFme5uM;" parent="1" vertex="1">
          <mxGeometry x="4819" y="2485" width="704" height="345" as="geometry" />
        </mxCell>
        <mxCell id="gnkaqfE58BtBJmnsjo4r-84" style="edgeStyle=orthogonalEdgeStyle;rounded=0;orthogonalLoop=1;jettySize=auto;html=1;entryX=1;entryY=0.5;entryDx=0;entryDy=0;fontFamily=Helvetica;fontSize=52;fontColor=default;strokeWidth=9;endArrow=none;endFill=0;fillColor=none;" parent="1" source="gnkaqfE58BtBJmnsjo4r-51" target="gnkaqfE58BtBJmnsjo4r-56" edge="1">
          <mxGeometry relative="1" as="geometry">
            <Array as="points">
              <mxPoint x="6729" y="4653" />
            </Array>
          </mxGeometry>
        </mxCell>
        <mxCell id="gnkaqfE58BtBJmnsjo4r-51" value="Fornecedor" style="html=1;overflow=block;blockSpacing=1;shape=umlActor;labelPosition=center;verticalLabelPosition=bottom;verticalAlign=top;whiteSpace=nowrap;fontSize=52;spacing=0;rounded=1;absoluteArcSize=1;arcSize=9;fillColor=none;strokeWidth=9;lucidId=iNcdsYr5~yyS;" parent="1" vertex="1">
          <mxGeometry x="6660" y="3650" width="138" height="255" as="geometry" />
        </mxCell>
        <mxCell id="gnkaqfE58BtBJmnsjo4r-52" value="Realiza reserva de quarto" style="html=1;overflow=block;blockSpacing=1;whiteSpace=wrap;ellipse;fontSize=52;spacing=3.8;rounded=1;absoluteArcSize=1;arcSize=9;fillColor=none;strokeWidth=9;lucidId=yNcdwA~H~~Sd;" parent="1" vertex="1">
          <mxGeometry x="4700" y="1550" width="809" height="480" as="geometry" />
        </mxCell>
        <mxCell id="gnkaqfE58BtBJmnsjo4r-56" value="Fornece mantimentos e produtos" style="html=1;overflow=block;blockSpacing=1;whiteSpace=wrap;ellipse;fontSize=52;spacing=3.8;rounded=1;absoluteArcSize=1;arcSize=9;fillColor=none;strokeWidth=9;lucidId=FZcdq__H7st_;" parent="1" vertex="1">
          <mxGeometry x="4691" y="4480" width="704" height="345" as="geometry" />
        </mxCell>
        <mxCell id="gnkaqfE58BtBJmnsjo4r-652" style="rounded=0;orthogonalLoop=1;jettySize=auto;html=1;fontFamily=Helvetica;fontSize=12;fontColor=default;dashed=1;dashPattern=8 8;strokeWidth=9;" parent="1" source="gnkaqfE58BtBJmnsjo4r-57" target="gnkaqfE58BtBJmnsjo4r-56" edge="1">
          <mxGeometry relative="1" as="geometry" />
        </mxCell>
        <mxCell id="gnkaqfE58BtBJmnsjo4r-57" value="Faz pedidos de produtos" style="html=1;overflow=block;blockSpacing=1;whiteSpace=wrap;ellipse;fontSize=52;spacing=3.8;rounded=1;absoluteArcSize=1;arcSize=9;fillColor=none;strokeWidth=9;lucidId=j0cdSnjI2tbt;" parent="1" vertex="1">
          <mxGeometry x="885" y="3010" width="704" height="345" as="geometry" />
        </mxCell>
        <mxCell id="gnkaqfE58BtBJmnsjo4r-58" value="" style="html=1;jettySize=18;whiteSpace=wrap;fontSize=52;strokeWidth=9;rounded=1;arcSize=12;edgeStyle=orthogonalEdgeStyle;startArrow=none;endArrow=none;exitX=-0.005;exitY=0.5;exitPerimeter=0;lucidId=y0cdnkN.m35U;fillColor=none;" parent="1" source="gnkaqfE58BtBJmnsjo4r-57" edge="1">
          <mxGeometry width="100" height="100" relative="1" as="geometry">
            <Array as="points">
              <mxPoint x="554" y="3183" />
            </Array>
            <mxPoint x="554" y="3113" as="targetPoint" />
          </mxGeometry>
        </mxCell>
        <mxCell id="gnkaqfE58BtBJmnsjo4r-64" value="Cadastra fornecedores" style="html=1;overflow=block;blockSpacing=1;whiteSpace=wrap;ellipse;fontSize=52;spacing=3.8;rounded=1;absoluteArcSize=1;arcSize=9;fillColor=none;strokeWidth=9;lucidId=E3cdSo4TxMKM;" parent="1" vertex="1">
          <mxGeometry x="870" y="3525" width="704" height="345" as="geometry" />
        </mxCell>
        <mxCell id="gnkaqfE58BtBJmnsjo4r-75" value="&lt;span style=&quot;color: rgb(40, 44, 51); font-family: Helvetica; font-size: 52px; font-style: normal; font-variant-ligatures: normal; font-variant-caps: normal; font-weight: 400; letter-spacing: normal; orphans: 2; text-align: center; text-indent: 0px; text-transform: none; widows: 2; word-spacing: 0px; -webkit-text-stroke-width: 0px; white-space: normal; background-color: rgb(251, 251, 251); text-decoration-thickness: initial; text-decoration-style: initial; text-decoration-color: initial; float: none; display: inline !important;&quot;&gt;&amp;lt;&amp;lt;include&amp;gt;&amp;gt;&lt;/span&gt;" style="text;whiteSpace=wrap;html=1;fontFamily=Helvetica;fontSize=52;strokeWidth=9;fillColor=none;" parent="1" vertex="1">
          <mxGeometry x="4070" y="4090" width="460" height="120" as="geometry" />
        </mxCell>
        <mxCell id="gnkaqfE58BtBJmnsjo4r-79" value="&lt;span style=&quot;color: rgb(40, 44, 51); font-family: Helvetica; font-size: 52px; font-style: normal; font-variant-ligatures: normal; font-variant-caps: normal; font-weight: 400; letter-spacing: normal; orphans: 2; text-align: center; text-indent: 0px; text-transform: none; widows: 2; word-spacing: 0px; -webkit-text-stroke-width: 0px; white-space: normal; background-color: rgb(251, 251, 251); text-decoration-thickness: initial; text-decoration-style: initial; text-decoration-color: initial; float: none; display: inline !important;&quot;&gt;Generalização&lt;/span&gt;" style="text;whiteSpace=wrap;html=1;fontFamily=Helvetica;fontSize=52;strokeWidth=9;fillColor=none;" parent="1" vertex="1">
          <mxGeometry x="-399" y="-1130" width="420" height="100" as="geometry" />
        </mxCell>
        <mxCell id="gnkaqfE58BtBJmnsjo4r-80" value="&lt;span style=&quot;color: rgb(40, 44, 51); font-family: Helvetica; font-size: 52px; font-style: normal; font-variant-ligatures: normal; font-variant-caps: normal; font-weight: 400; letter-spacing: normal; orphans: 2; text-align: center; text-indent: 0px; text-transform: none; widows: 2; word-spacing: 0px; -webkit-text-stroke-width: 0px; white-space: normal; background-color: rgb(251, 251, 251); text-decoration-thickness: initial; text-decoration-style: initial; text-decoration-color: initial; float: none; display: inline !important;&quot;&gt;Generalização&lt;/span&gt;" style="text;whiteSpace=wrap;html=1;fontFamily=Helvetica;fontSize=52;strokeWidth=9;fillColor=none;" parent="1" vertex="1">
          <mxGeometry x="-669" y="-1620" width="420" height="100" as="geometry" />
        </mxCell>
        <mxCell id="gnkaqfE58BtBJmnsjo4r-81" value="&lt;span style=&quot;color: rgb(40, 44, 51); font-family: Helvetica; font-size: 52px; font-style: normal; font-variant-ligatures: normal; font-variant-caps: normal; font-weight: 400; letter-spacing: normal; orphans: 2; text-align: center; text-indent: 0px; text-transform: none; widows: 2; word-spacing: 0px; -webkit-text-stroke-width: 0px; white-space: normal; background-color: rgb(251, 251, 251); text-decoration-thickness: initial; text-decoration-style: initial; text-decoration-color: initial; float: none; display: inline !important;&quot;&gt;Generalização&lt;/span&gt;" style="text;whiteSpace=wrap;html=1;fontFamily=Helvetica;fontSize=52;strokeWidth=9;fillColor=none;" parent="1" vertex="1">
          <mxGeometry x="-930" width="420" height="100" as="geometry" />
        </mxCell>
        <mxCell id="gnkaqfE58BtBJmnsjo4r-175" value="" style="html=1;overflow=block;blockSpacing=1;whiteSpace=wrap;fontSize=52;spacing=0;strokeOpacity=100;fillOpacity=100;rounded=1;absoluteArcSize=1;arcSize=9;fillColor=none;strokeWidth=9;lucidId=vnddD5kjl2zm;" parent="1" vertex="1">
          <mxGeometry x="560" y="3694" width="310" height="2" as="geometry" />
        </mxCell>
        <mxCell id="gnkaqfE58BtBJmnsjo4r-191" style="edgeStyle=orthogonalEdgeStyle;rounded=0;orthogonalLoop=1;jettySize=auto;html=1;fontFamily=Helvetica;fontSize=12;fontColor=default;strokeWidth=9;endArrow=none;endFill=0;" parent="1" source="gnkaqfE58BtBJmnsjo4r-176" edge="1">
          <mxGeometry relative="1" as="geometry">
            <mxPoint x="160" y="2290" as="targetPoint" />
          </mxGeometry>
        </mxCell>
        <mxCell id="gnkaqfE58BtBJmnsjo4r-176" value="Emite nota fiscal de pedido" style="html=1;overflow=block;blockSpacing=1;whiteSpace=wrap;ellipse;fontSize=52;spacing=3.8;rounded=1;absoluteArcSize=1;arcSize=9;fillColor=none;strokeWidth=9;lucidId=EpddXtmrEr6c;" parent="1" vertex="1">
          <mxGeometry x="3890" y="1810" width="713" height="338" as="geometry" />
        </mxCell>
        <mxCell id="gnkaqfE58BtBJmnsjo4r-647" style="edgeStyle=orthogonalEdgeStyle;rounded=0;orthogonalLoop=1;jettySize=auto;html=1;entryX=0.5;entryY=0;entryDx=0;entryDy=0;fontFamily=Helvetica;fontSize=12;fontColor=default;strokeWidth=9;dashed=1;dashPattern=8 8;" parent="1" source="gnkaqfE58BtBJmnsjo4r-181" target="gnkaqfE58BtBJmnsjo4r-52" edge="1">
          <mxGeometry relative="1" as="geometry" />
        </mxCell>
        <mxCell id="gnkaqfE58BtBJmnsjo4r-686" style="rounded=0;orthogonalLoop=1;jettySize=auto;html=1;fontFamily=Helvetica;fontSize=12;fontColor=default;dashed=1;strokeWidth=9;" parent="1" source="gnkaqfE58BtBJmnsjo4r-181" target="gnkaqfE58BtBJmnsjo4r-682" edge="1">
          <mxGeometry relative="1" as="geometry" />
        </mxCell>
        <mxCell id="gnkaqfE58BtBJmnsjo4r-181" value="Realiza check-in do hóspede" style="html=1;overflow=block;blockSpacing=1;whiteSpace=wrap;ellipse;fontSize=52;spacing=3.8;rounded=1;absoluteArcSize=1;arcSize=9;fillColor=none;strokeWidth=9;lucidId=AuddFBvROL3v;" parent="1" vertex="1">
          <mxGeometry x="1131" y="-2348" width="713" height="338" as="geometry" />
        </mxCell>
        <mxCell id="gnkaqfE58BtBJmnsjo4r-649" style="rounded=0;orthogonalLoop=1;jettySize=auto;html=1;entryX=1;entryY=0;entryDx=0;entryDy=0;fontFamily=Helvetica;fontSize=12;fontColor=default;dashed=1;dashPattern=8 8;strokeWidth=9;" parent="1" source="gnkaqfE58BtBJmnsjo4r-185" target="gnkaqfE58BtBJmnsjo4r-187" edge="1">
          <mxGeometry relative="1" as="geometry" />
        </mxCell>
        <mxCell id="gnkaqfE58BtBJmnsjo4r-667" style="rounded=0;orthogonalLoop=1;jettySize=auto;html=1;fontFamily=Helvetica;fontSize=12;fontColor=default;dashed=1;strokeWidth=9;" parent="1" source="gnkaqfE58BtBJmnsjo4r-185" target="gnkaqfE58BtBJmnsjo4r-664" edge="1">
          <mxGeometry relative="1" as="geometry" />
        </mxCell>
        <mxCell id="gnkaqfE58BtBJmnsjo4r-185" value="Gera historico de hospedagem e dispesas" style="html=1;overflow=block;blockSpacing=1;whiteSpace=wrap;ellipse;fontSize=52;spacing=3.8;rounded=1;absoluteArcSize=1;arcSize=9;fillColor=none;strokeWidth=9;lucidId=2BddRxAJj2M0;" parent="1" vertex="1">
          <mxGeometry x="1814" y="-3800" width="713" height="338" as="geometry" />
        </mxCell>
        <mxCell id="gnkaqfE58BtBJmnsjo4r-186" value="" style="html=1;jettySize=18;whiteSpace=wrap;fontSize=52;strokeWidth=9;rounded=1;arcSize=12;edgeStyle=orthogonalEdgeStyle;startArrow=none;endArrow=none;exitX=-0.002;exitY=0.5;exitPerimeter=0;lucidId=jCddAQpKVE3g;fillColor=none;" parent="1" source="gnkaqfE58BtBJmnsjo4r-187" edge="1">
          <mxGeometry width="100" height="100" relative="1" as="geometry">
            <Array as="points">
              <mxPoint x="239" y="-2771" />
            </Array>
            <mxPoint x="256" y="-2179" as="targetPoint" />
          </mxGeometry>
        </mxCell>
        <mxCell id="gnkaqfE58BtBJmnsjo4r-691" style="rounded=0;orthogonalLoop=1;jettySize=auto;html=1;fontFamily=Helvetica;fontSize=12;fontColor=default;dashed=1;dashPattern=8 8;strokeWidth=9;" parent="1" source="gnkaqfE58BtBJmnsjo4r-187" target="gnkaqfE58BtBJmnsjo4r-682" edge="1">
          <mxGeometry relative="1" as="geometry" />
        </mxCell>
        <mxCell id="gnkaqfE58BtBJmnsjo4r-699" style="rounded=0;orthogonalLoop=1;jettySize=auto;html=1;fontFamily=Helvetica;fontSize=12;fontColor=default;strokeWidth=9;dashed=1;" parent="1" source="gnkaqfE58BtBJmnsjo4r-187" target="gnkaqfE58BtBJmnsjo4r-696" edge="1">
          <mxGeometry relative="1" as="geometry" />
        </mxCell>
        <mxCell id="gnkaqfE58BtBJmnsjo4r-187" value="Realiza chckout  do hóspede" style="html=1;overflow=block;blockSpacing=1;whiteSpace=wrap;ellipse;fontSize=52;spacing=3.8;rounded=1;absoluteArcSize=1;arcSize=9;fillColor=none;strokeWidth=9;lucidId=ECdd-4_lxW2l;" parent="1" vertex="1">
          <mxGeometry x="1131" y="-2940" width="713" height="338" as="geometry" />
        </mxCell>
        <mxCell id="gnkaqfE58BtBJmnsjo4r-190" style="edgeStyle=orthogonalEdgeStyle;rounded=0;orthogonalLoop=1;jettySize=auto;html=1;entryX=0.5;entryY=0;entryDx=0;entryDy=0;entryPerimeter=0;fontFamily=Helvetica;fontSize=12;fontColor=default;strokeWidth=9;endArrow=none;endFill=0;" parent="1" source="gnkaqfE58BtBJmnsjo4r-38" target="gnkaqfE58BtBJmnsjo4r-35" edge="1">
          <mxGeometry relative="1" as="geometry">
            <Array as="points">
              <mxPoint x="159" y="2250" />
            </Array>
          </mxGeometry>
        </mxCell>
        <mxCell id="gnkaqfE58BtBJmnsjo4r-193" value="&lt;span style=&quot;color: rgb(40, 44, 51); font-family: Helvetica; font-size: 52px; font-style: normal; font-variant-ligatures: normal; font-variant-caps: normal; font-weight: 400; letter-spacing: normal; orphans: 2; text-align: center; text-indent: 0px; text-transform: none; widows: 2; word-spacing: 0px; -webkit-text-stroke-width: 0px; white-space: normal; background-color: rgb(251, 251, 251); text-decoration-thickness: initial; text-decoration-style: initial; text-decoration-color: initial; float: none; display: inline !important;&quot;&gt;&amp;lt;&amp;lt;include&amp;gt;&amp;gt;&lt;/span&gt;" style="text;whiteSpace=wrap;html=1;fontFamily=Helvetica;fontSize=52;strokeWidth=9;fillColor=none;" parent="1" vertex="1">
          <mxGeometry x="3780" y="2940" width="460" height="120" as="geometry" />
        </mxCell>
        <mxCell id="gnkaqfE58BtBJmnsjo4r-195" value="Text" style="text;html=1;align=center;verticalAlign=middle;resizable=0;points=[];autosize=1;strokeColor=none;fillColor=none;fontFamily=Helvetica;fontSize=12;fontColor=default;" parent="1" vertex="1">
          <mxGeometry x="305" y="1558" width="50" height="30" as="geometry" />
        </mxCell>
        <mxCell id="gnkaqfE58BtBJmnsjo4r-197" value="&lt;span style=&quot;color: rgb(40, 44, 51); font-family: Helvetica; font-size: 52px; font-style: normal; font-variant-ligatures: normal; font-variant-caps: normal; font-weight: 400; letter-spacing: normal; orphans: 2; text-align: center; text-indent: 0px; text-transform: none; widows: 2; word-spacing: 0px; -webkit-text-stroke-width: 0px; white-space: normal; background-color: rgb(251, 251, 251); text-decoration-thickness: initial; text-decoration-style: initial; text-decoration-color: initial; float: none; display: inline !important;&quot;&gt;Generalização&lt;/span&gt;" style="text;whiteSpace=wrap;html=1;fontFamily=Helvetica;fontSize=52;strokeWidth=9;fillColor=none;" parent="1" vertex="1">
          <mxGeometry x="-298" y="-320" width="420" height="100" as="geometry" />
        </mxCell>
        <mxCell id="gnkaqfE58BtBJmnsjo4r-198" value="&lt;span style=&quot;color: rgb(40, 44, 51); font-family: Helvetica; font-size: 52px; font-style: normal; font-variant-ligatures: normal; font-variant-caps: normal; font-weight: 400; letter-spacing: normal; orphans: 2; text-align: center; text-indent: 0px; text-transform: none; widows: 2; word-spacing: 0px; -webkit-text-stroke-width: 0px; white-space: normal; background-color: rgb(251, 251, 251); text-decoration-thickness: initial; text-decoration-style: initial; text-decoration-color: initial; float: none; display: inline !important;&quot;&gt;Generalização&lt;/span&gt;" style="text;whiteSpace=wrap;html=1;fontFamily=Helvetica;fontSize=52;strokeWidth=9;fillColor=none;" parent="1" vertex="1">
          <mxGeometry x="-290" y="1190" width="420" height="100" as="geometry" />
        </mxCell>
        <mxCell id="gnkaqfE58BtBJmnsjo4r-199" style="edgeStyle=orthogonalEdgeStyle;rounded=0;orthogonalLoop=1;jettySize=auto;html=1;entryX=0.5;entryY=0;entryDx=0;entryDy=0;entryPerimeter=0;fontFamily=Helvetica;fontSize=12;fontColor=default;endArrow=none;endFill=0;strokeWidth=9;" parent="1" source="gnkaqfE58BtBJmnsjo4r-181" target="gnkaqfE58BtBJmnsjo4r-16" edge="1">
          <mxGeometry relative="1" as="geometry" />
        </mxCell>
        <mxCell id="gnkaqfE58BtBJmnsjo4r-201" value="&lt;span style=&quot;color: rgb(40, 44, 51); font-family: Helvetica; font-size: 52px; font-style: normal; font-variant-ligatures: normal; font-variant-caps: normal; font-weight: 400; letter-spacing: normal; orphans: 2; text-align: center; text-indent: 0px; text-transform: none; widows: 2; word-spacing: 0px; -webkit-text-stroke-width: 0px; white-space: normal; background-color: rgb(251, 251, 251); text-decoration-thickness: initial; text-decoration-style: initial; text-decoration-color: initial; float: none; display: inline !important;&quot;&gt;&amp;lt;&amp;lt;include&amp;gt;&amp;gt;&lt;/span&gt;" style="text;whiteSpace=wrap;html=1;fontFamily=Helvetica;fontSize=52;strokeWidth=9;fillColor=none;" parent="1" vertex="1">
          <mxGeometry x="3670" y="330" width="460" height="120" as="geometry" />
        </mxCell>
        <mxCell id="gnkaqfE58BtBJmnsjo4r-203" value="&lt;span style=&quot;color: rgb(40, 44, 51); font-family: Helvetica; font-size: 52px; font-style: normal; font-variant-ligatures: normal; font-variant-caps: normal; font-weight: 400; letter-spacing: normal; orphans: 2; text-align: center; text-indent: 0px; text-transform: none; widows: 2; word-spacing: 0px; -webkit-text-stroke-width: 0px; white-space: normal; background-color: rgb(251, 251, 251); text-decoration-thickness: initial; text-decoration-style: initial; text-decoration-color: initial; float: none; display: inline !important;&quot;&gt;&amp;lt;&amp;lt;include&amp;gt;&amp;gt;&lt;/span&gt;" style="text;whiteSpace=wrap;html=1;fontFamily=Helvetica;fontSize=52;strokeWidth=9;fillColor=none;" parent="1" vertex="1">
          <mxGeometry x="3987" y="-2390" width="460" height="120" as="geometry" />
        </mxCell>
        <mxCell id="gnkaqfE58BtBJmnsjo4r-204" value="&lt;span style=&quot;color: rgb(40, 44, 51); font-family: Helvetica; font-size: 52px; font-style: normal; font-variant-ligatures: normal; font-variant-caps: normal; font-weight: 400; letter-spacing: normal; orphans: 2; text-align: center; text-indent: 0px; text-transform: none; widows: 2; word-spacing: 0px; -webkit-text-stroke-width: 0px; white-space: normal; background-color: rgb(251, 251, 251); text-decoration-thickness: initial; text-decoration-style: initial; text-decoration-color: initial; float: none; display: inline !important;&quot;&gt;&amp;lt;&amp;lt;include&amp;gt;&amp;gt;&lt;/span&gt;" style="text;whiteSpace=wrap;html=1;fontFamily=Helvetica;fontSize=52;strokeWidth=9;fillColor=none;" parent="1" vertex="1">
          <mxGeometry x="1431" y="-3300" width="310" height="120" as="geometry" />
        </mxCell>
        <mxCell id="gnkaqfE58BtBJmnsjo4r-629" style="edgeStyle=orthogonalEdgeStyle;rounded=0;orthogonalLoop=1;jettySize=auto;html=1;fontFamily=Helvetica;fontSize=12;fontColor=default;endArrow=none;endFill=0;strokeWidth=9;startArrow=classic;startFill=1;" parent="1" edge="1">
          <mxGeometry relative="1" as="geometry">
            <mxPoint x="-1143" y="4670" as="targetPoint" />
            <mxPoint y="5587.5" as="sourcePoint" />
            <Array as="points">
              <mxPoint y="5600" />
              <mxPoint x="-1142" y="5600" />
            </Array>
          </mxGeometry>
        </mxCell>
        <mxCell id="gnkaqfE58BtBJmnsjo4r-635" style="edgeStyle=orthogonalEdgeStyle;rounded=0;orthogonalLoop=1;jettySize=auto;html=1;entryX=0;entryY=0.5;entryDx=0;entryDy=0;fontFamily=Helvetica;fontSize=12;fontColor=default;endArrow=none;endFill=0;strokeWidth=9;" parent="1" source="gnkaqfE58BtBJmnsjo4r-628" target="gnkaqfE58BtBJmnsjo4r-634" edge="1">
          <mxGeometry relative="1" as="geometry">
            <Array as="points">
              <mxPoint x="498" y="5610" />
              <mxPoint x="498" y="5430" />
            </Array>
          </mxGeometry>
        </mxCell>
        <mxCell id="gnkaqfE58BtBJmnsjo4r-628" value="Camareira Chefe" style="html=1;overflow=block;blockSpacing=1;shape=umlActor;labelPosition=center;verticalLabelPosition=bottom;verticalAlign=top;whiteSpace=nowrap;fontSize=52;spacing=0;rounded=1;absoluteArcSize=1;arcSize=9;fillColor=none;strokeWidth=9;lucidId=2FcdAAeAINHJ;" parent="1" vertex="1">
          <mxGeometry x="3" y="5510" width="138" height="255" as="geometry" />
        </mxCell>
        <mxCell id="gnkaqfE58BtBJmnsjo4r-631" value="&lt;span style=&quot;color: rgb(40, 44, 51); font-family: Helvetica; font-size: 52px; font-style: normal; font-variant-ligatures: normal; font-variant-caps: normal; font-weight: 400; letter-spacing: normal; orphans: 2; text-align: center; text-indent: 0px; text-transform: none; widows: 2; word-spacing: 0px; -webkit-text-stroke-width: 0px; white-space: normal; background-color: rgb(251, 251, 251); text-decoration-thickness: initial; text-decoration-style: initial; text-decoration-color: initial; float: none; display: inline !important;&quot;&gt;Generalização&lt;/span&gt;" style="text;whiteSpace=wrap;html=1;fontFamily=Helvetica;fontSize=52;strokeWidth=9;fillColor=none;" parent="1" vertex="1">
          <mxGeometry x="-750" y="2550" width="420" height="100" as="geometry" />
        </mxCell>
        <mxCell id="gnkaqfE58BtBJmnsjo4r-632" value="&lt;span style=&quot;color: rgb(40, 44, 51); font-family: Helvetica; font-size: 52px; font-style: normal; font-variant-ligatures: normal; font-variant-caps: normal; font-weight: 400; letter-spacing: normal; orphans: 2; text-align: center; text-indent: 0px; text-transform: none; widows: 2; word-spacing: 0px; -webkit-text-stroke-width: 0px; white-space: normal; background-color: rgb(251, 251, 251); text-decoration-thickness: initial; text-decoration-style: initial; text-decoration-color: initial; float: none; display: inline !important;&quot;&gt;Generalização&lt;/span&gt;" style="text;whiteSpace=wrap;html=1;fontFamily=Helvetica;fontSize=52;strokeWidth=9;fillColor=none;" parent="1" vertex="1">
          <mxGeometry x="-790" y="4500" width="420" height="100" as="geometry" />
        </mxCell>
        <mxCell id="gnkaqfE58BtBJmnsjo4r-633" value="&lt;span style=&quot;color: rgb(40, 44, 51); font-family: Helvetica; font-size: 52px; font-style: normal; font-variant-ligatures: normal; font-variant-caps: normal; font-weight: 400; letter-spacing: normal; orphans: 2; text-align: center; text-indent: 0px; text-transform: none; widows: 2; word-spacing: 0px; -webkit-text-stroke-width: 0px; white-space: normal; background-color: rgb(251, 251, 251); text-decoration-thickness: initial; text-decoration-style: initial; text-decoration-color: initial; float: none; display: inline !important;&quot;&gt;Generalização&lt;/span&gt;" style="text;whiteSpace=wrap;html=1;fontFamily=Helvetica;fontSize=52;strokeWidth=9;fillColor=none;" parent="1" vertex="1">
          <mxGeometry x="-830" y="5380" width="420" height="100" as="geometry" />
        </mxCell>
        <mxCell id="gnkaqfE58BtBJmnsjo4r-634" value="Registra limpeza" style="html=1;overflow=block;blockSpacing=1;whiteSpace=wrap;ellipse;fontSize=52;spacing=3.8;rounded=1;absoluteArcSize=1;arcSize=9;fillColor=none;strokeWidth=9;lucidId=RFcd6PAY-MK_;" parent="1" vertex="1">
          <mxGeometry x="855" y="5257.5" width="704" height="345" as="geometry" />
        </mxCell>
        <mxCell id="gnkaqfE58BtBJmnsjo4r-638" style="edgeStyle=orthogonalEdgeStyle;rounded=0;orthogonalLoop=1;jettySize=auto;html=1;fontFamily=Helvetica;fontSize=12;fontColor=default;endArrow=none;endFill=0;strokeWidth=9;" parent="1" source="gnkaqfE58BtBJmnsjo4r-637" edge="1">
          <mxGeometry relative="1" as="geometry">
            <mxPoint x="621" y="-880" as="targetPoint" />
          </mxGeometry>
        </mxCell>
        <mxCell id="gnkaqfE58BtBJmnsjo4r-637" value="Cadatro de lojas e terceiros conveniados" style="html=1;overflow=block;blockSpacing=1;whiteSpace=wrap;ellipse;fontSize=52;spacing=3.8;rounded=1;absoluteArcSize=1;arcSize=9;fillColor=none;strokeWidth=9;lucidId=kqcdeaaTe-Xc;" parent="1" vertex="1">
          <mxGeometry x="981" y="-1050" width="704" height="345" as="geometry" />
        </mxCell>
        <mxCell id="gnkaqfE58BtBJmnsjo4r-639" value="Text" style="text;html=1;align=center;verticalAlign=middle;resizable=0;points=[];autosize=1;strokeColor=none;fillColor=none;fontFamily=Helvetica;fontSize=12;fontColor=default;" parent="1" vertex="1">
          <mxGeometry x="-295" y="1378" width="50" height="30" as="geometry" />
        </mxCell>
        <mxCell id="gnkaqfE58BtBJmnsjo4r-640" style="edgeStyle=orthogonalEdgeStyle;rounded=0;orthogonalLoop=1;jettySize=auto;html=1;entryX=0;entryY=0.3333333333333333;entryDx=0;entryDy=0;entryPerimeter=0;fontFamily=Helvetica;fontSize=12;fontColor=default;strokeWidth=9;endArrow=classic;endFill=1;" parent="1" source="gnkaqfE58BtBJmnsjo4r-7" target="gnkaqfE58BtBJmnsjo4r-27" edge="1">
          <mxGeometry relative="1" as="geometry">
            <Array as="points">
              <mxPoint x="-370" y="1315" />
            </Array>
          </mxGeometry>
        </mxCell>
        <mxCell id="gnkaqfE58BtBJmnsjo4r-657" style="edgeStyle=orthogonalEdgeStyle;rounded=0;orthogonalLoop=1;jettySize=auto;html=1;entryX=1;entryY=0.5;entryDx=0;entryDy=0;fontFamily=Helvetica;fontSize=12;fontColor=default;strokeWidth=9;endArrow=none;endFill=0;" parent="1" source="gnkaqfE58BtBJmnsjo4r-642" target="gnkaqfE58BtBJmnsjo4r-656" edge="1">
          <mxGeometry relative="1" as="geometry" />
        </mxCell>
        <mxCell id="gnkaqfE58BtBJmnsjo4r-659" style="edgeStyle=orthogonalEdgeStyle;rounded=0;orthogonalLoop=1;jettySize=auto;html=1;entryX=1;entryY=0.5;entryDx=0;entryDy=0;fontFamily=Helvetica;fontSize=12;fontColor=default;strokeWidth=9;endArrow=none;endFill=0;" parent="1" source="gnkaqfE58BtBJmnsjo4r-642" target="gnkaqfE58BtBJmnsjo4r-658" edge="1">
          <mxGeometry relative="1" as="geometry">
            <Array as="points">
              <mxPoint x="6770" y="-2172" />
              <mxPoint x="6770" y="-2041" />
            </Array>
          </mxGeometry>
        </mxCell>
        <mxCell id="gnkaqfE58BtBJmnsjo4r-642" value="Lojas e&lt;div&gt;convenios&lt;/div&gt;" style="html=1;overflow=block;blockSpacing=1;shape=umlActor;labelPosition=center;verticalLabelPosition=bottom;verticalAlign=top;whiteSpace=nowrap;fontSize=52;spacing=0;rounded=1;absoluteArcSize=1;arcSize=9;fillColor=none;strokeWidth=9;lucidId=Kkcd_lmus3rN;" parent="1" vertex="1">
          <mxGeometry x="7111" y="-2300" width="138" height="255" as="geometry" />
        </mxCell>
        <mxCell id="gnkaqfE58BtBJmnsjo4r-650" style="rounded=0;orthogonalLoop=1;jettySize=auto;html=1;entryX=0.02;entryY=0.623;entryDx=0;entryDy=0;entryPerimeter=0;fontFamily=Helvetica;fontSize=12;fontColor=default;dashed=1;dashPattern=8 8;strokeWidth=9;" parent="1" source="gnkaqfE58BtBJmnsjo4r-41" target="gnkaqfE58BtBJmnsjo4r-47" edge="1">
          <mxGeometry relative="1" as="geometry" />
        </mxCell>
        <mxCell id="gnkaqfE58BtBJmnsjo4r-656" value="Fornece produtos" style="html=1;overflow=block;blockSpacing=1;whiteSpace=wrap;ellipse;fontSize=52;spacing=3.8;rounded=1;absoluteArcSize=1;arcSize=9;fillColor=none;strokeWidth=9;lucidId=2BddRxAJj2M0;" parent="1" vertex="1">
          <mxGeometry x="5717" y="-2850" width="713" height="338" as="geometry" />
        </mxCell>
        <mxCell id="gnkaqfE58BtBJmnsjo4r-661" style="rounded=0;orthogonalLoop=1;jettySize=auto;html=1;entryX=1;entryY=1;entryDx=0;entryDy=0;fontFamily=Helvetica;fontSize=12;fontColor=default;strokeWidth=9;dashed=1;startArrow=classic;startFill=1;endArrow=none;endFill=0;" parent="1" source="gnkaqfE58BtBJmnsjo4r-658" target="gnkaqfE58BtBJmnsjo4r-185" edge="1">
          <mxGeometry relative="1" as="geometry" />
        </mxCell>
        <mxCell id="gnkaqfE58BtBJmnsjo4r-658" value="Emite relatorio de gastos por cliente" style="html=1;overflow=block;blockSpacing=1;whiteSpace=wrap;ellipse;fontSize=52;spacing=3.8;rounded=1;absoluteArcSize=1;arcSize=9;fillColor=none;strokeWidth=9;lucidId=2BddRxAJj2M0;" parent="1" vertex="1">
          <mxGeometry x="5740" y="-2210" width="713" height="338" as="geometry" />
        </mxCell>
        <mxCell id="gnkaqfE58BtBJmnsjo4r-662" value="&lt;span style=&quot;color: rgb(40, 44, 51); font-family: Helvetica; font-size: 52px; font-style: normal; font-variant-ligatures: normal; font-variant-caps: normal; font-weight: 400; letter-spacing: normal; orphans: 2; text-align: center; text-indent: 0px; text-transform: none; widows: 2; word-spacing: 0px; -webkit-text-stroke-width: 0px; white-space: normal; background-color: rgb(251, 251, 251); text-decoration-thickness: initial; text-decoration-style: initial; text-decoration-color: initial; float: none; display: inline !important;&quot;&gt;&amp;lt;&amp;lt;include&amp;gt;&amp;gt;&lt;/span&gt;" style="text;whiteSpace=wrap;html=1;fontFamily=Helvetica;fontSize=52;strokeWidth=9;fillColor=none;" parent="1" vertex="1">
          <mxGeometry x="4060" y="-3190" width="460" height="120" as="geometry" />
        </mxCell>
        <mxCell id="gnkaqfE58BtBJmnsjo4r-665" style="edgeStyle=orthogonalEdgeStyle;rounded=0;orthogonalLoop=1;jettySize=auto;html=1;fontFamily=Helvetica;fontSize=12;fontColor=default;strokeWidth=9;endArrow=none;endFill=0;" parent="1" source="gnkaqfE58BtBJmnsjo4r-664" edge="1">
          <mxGeometry relative="1" as="geometry">
            <mxPoint x="2920" y="1970" as="targetPoint" />
            <Array as="points">
              <mxPoint x="2932" y="1970" />
            </Array>
          </mxGeometry>
        </mxCell>
        <mxCell id="gnkaqfE58BtBJmnsjo4r-664" value="Emite relatorio de gastos por cliente" style="html=1;overflow=block;blockSpacing=1;whiteSpace=wrap;ellipse;fontSize=52;spacing=3.8;rounded=1;absoluteArcSize=1;arcSize=9;fillColor=none;strokeWidth=9;lucidId=RDcdJreU1p-L;" parent="1" vertex="1">
          <mxGeometry x="2580" y="1350" width="704" height="345" as="geometry" />
        </mxCell>
        <mxCell id="gnkaqfE58BtBJmnsjo4r-668" value="&lt;span style=&quot;color: rgb(40, 44, 51); font-family: Helvetica; font-size: 52px; font-style: normal; font-variant-ligatures: normal; font-variant-caps: normal; font-weight: 400; letter-spacing: normal; orphans: 2; text-align: center; text-indent: 0px; text-transform: none; widows: 2; word-spacing: 0px; -webkit-text-stroke-width: 0px; white-space: normal; background-color: rgb(251, 251, 251); text-decoration-thickness: initial; text-decoration-style: initial; text-decoration-color: initial; float: none; display: inline !important;&quot;&gt;&amp;lt;&amp;lt;include&amp;gt;&amp;gt;&lt;/span&gt;" style="text;whiteSpace=wrap;html=1;fontFamily=Helvetica;fontSize=52;strokeWidth=9;fillColor=none;" parent="1" vertex="1">
          <mxGeometry x="2890" y="560" width="460" height="120" as="geometry" />
        </mxCell>
        <mxCell id="gnkaqfE58BtBJmnsjo4r-670" style="edgeStyle=orthogonalEdgeStyle;rounded=0;orthogonalLoop=1;jettySize=auto;html=1;fontFamily=Helvetica;fontSize=12;fontColor=default;strokeWidth=9;endArrow=none;endFill=0;" parent="1" source="gnkaqfE58BtBJmnsjo4r-669" edge="1">
          <mxGeometry relative="1" as="geometry">
            <mxPoint x="600" y="-470" as="targetPoint" />
            <Array as="points">
              <mxPoint x="610" y="-68" />
              <mxPoint x="610" y="-470" />
            </Array>
          </mxGeometry>
        </mxCell>
        <mxCell id="gnkaqfE58BtBJmnsjo4r-669" value="Emite relatorio de ocupações" style="html=1;overflow=block;blockSpacing=1;whiteSpace=wrap;ellipse;fontSize=52;spacing=3.8;rounded=1;absoluteArcSize=1;arcSize=9;fillColor=none;strokeWidth=9;lucidId=VscdY_612fUA;" parent="1" vertex="1">
          <mxGeometry x="951" y="-240" width="704" height="345" as="geometry" />
        </mxCell>
        <mxCell id="gnkaqfE58BtBJmnsjo4r-672" style="edgeStyle=orthogonalEdgeStyle;rounded=0;orthogonalLoop=1;jettySize=auto;html=1;fontFamily=Helvetica;fontSize=12;fontColor=default;strokeWidth=9;endArrow=none;endFill=0;" parent="1" source="gnkaqfE58BtBJmnsjo4r-671" edge="1">
          <mxGeometry relative="1" as="geometry">
            <mxPoint x="6730" y="1630" as="targetPoint" />
          </mxGeometry>
        </mxCell>
        <mxCell id="gnkaqfE58BtBJmnsjo4r-671" value="Consulta lista parcial de despesas" style="html=1;overflow=block;blockSpacing=1;whiteSpace=wrap;ellipse;fontSize=52;spacing=3.8;rounded=1;absoluteArcSize=1;arcSize=9;fillColor=none;strokeWidth=9;lucidId=yNcdwA~H~~Sd;" parent="1" vertex="1">
          <mxGeometry x="5360" y="1110" width="720" height="430" as="geometry" />
        </mxCell>
        <mxCell id="gnkaqfE58BtBJmnsjo4r-681" style="edgeStyle=orthogonalEdgeStyle;rounded=0;orthogonalLoop=1;jettySize=auto;html=1;entryX=1;entryY=0.5;entryDx=0;entryDy=0;fontFamily=Helvetica;fontSize=12;fontColor=default;strokeWidth=9;" parent="1" source="gnkaqfE58BtBJmnsjo4r-673" target="gnkaqfE58BtBJmnsjo4r-680" edge="1">
          <mxGeometry relative="1" as="geometry" />
        </mxCell>
        <mxCell id="gnkaqfE58BtBJmnsjo4r-684" style="edgeStyle=orthogonalEdgeStyle;rounded=0;orthogonalLoop=1;jettySize=auto;html=1;entryX=1;entryY=0.5;entryDx=0;entryDy=0;fontFamily=Helvetica;fontSize=12;fontColor=default;strokeWidth=9;" parent="1" source="gnkaqfE58BtBJmnsjo4r-673" target="gnkaqfE58BtBJmnsjo4r-682" edge="1">
          <mxGeometry relative="1" as="geometry" />
        </mxCell>
        <mxCell id="gnkaqfE58BtBJmnsjo4r-673" value="Sistema de controle de&lt;div&gt;&amp;nbsp;segurança&lt;/div&gt;" style="html=1;overflow=block;blockSpacing=1;shape=umlActor;labelPosition=center;verticalLabelPosition=bottom;verticalAlign=top;whiteSpace=nowrap;fontSize=52;spacing=0;rounded=1;absoluteArcSize=1;arcSize=9;fillColor=none;strokeWidth=9;lucidId=Kkcd_lmus3rN;" parent="1" vertex="1">
          <mxGeometry x="6310" y="-960" width="138" height="255" as="geometry" />
        </mxCell>
        <mxCell id="gnkaqfE58BtBJmnsjo4r-678" value="Text" style="text;html=1;align=center;verticalAlign=middle;resizable=0;points=[];autosize=1;strokeColor=none;fillColor=none;fontFamily=Helvetica;fontSize=12;fontColor=default;" parent="1" vertex="1">
          <mxGeometry x="6845" y="-532" width="50" height="30" as="geometry" />
        </mxCell>
        <mxCell id="gnkaqfE58BtBJmnsjo4r-680" value="Gerencia perfis de acesso" style="html=1;overflow=block;blockSpacing=1;whiteSpace=wrap;ellipse;fontSize=52;spacing=3.8;rounded=1;absoluteArcSize=1;arcSize=9;fillColor=none;strokeWidth=9;lucidId=2BddRxAJj2M0;" parent="1" vertex="1">
          <mxGeometry x="5260" y="-740" width="713" height="338" as="geometry" />
        </mxCell>
        <mxCell id="gnkaqfE58BtBJmnsjo4r-682" value="Emite verificação de segurança" style="html=1;overflow=block;blockSpacing=1;whiteSpace=wrap;ellipse;fontSize=52;spacing=3.8;rounded=1;absoluteArcSize=1;arcSize=9;fillColor=none;strokeWidth=9;lucidId=2BddRxAJj2M0;" parent="1" vertex="1">
          <mxGeometry x="5270" y="-1310" width="713" height="338" as="geometry" />
        </mxCell>
        <mxCell id="gnkaqfE58BtBJmnsjo4r-687" value="&lt;span style=&quot;color: rgb(40, 44, 51); font-family: Helvetica; font-size: 52px; font-style: normal; font-variant-ligatures: normal; font-variant-caps: normal; font-weight: 400; letter-spacing: normal; orphans: 2; text-align: center; text-indent: 0px; text-transform: none; widows: 2; word-spacing: 0px; -webkit-text-stroke-width: 0px; white-space: normal; background-color: rgb(251, 251, 251); text-decoration-thickness: initial; text-decoration-style: initial; text-decoration-color: initial; float: none; display: inline !important;&quot;&gt;&amp;lt;&amp;lt;include&amp;gt;&amp;gt;&lt;/span&gt;" style="text;whiteSpace=wrap;html=1;fontFamily=Helvetica;fontSize=52;strokeWidth=9;fillColor=none;" parent="1" vertex="1">
          <mxGeometry x="3527" y="-1780" width="460" height="120" as="geometry" />
        </mxCell>
        <mxCell id="gnkaqfE58BtBJmnsjo4r-689" value="Informa se há deficiências e se necessita de um tratamento especial" style="html=1;overflow=block;blockSpacing=1;whiteSpace=wrap;ellipse;fontSize=52;spacing=3.8;rounded=1;absoluteArcSize=1;arcSize=9;fillColor=none;strokeWidth=9;lucidId=yNcdwA~H~~Sd;" parent="1" vertex="1">
          <mxGeometry x="6320" y="10" width="809" height="480" as="geometry" />
        </mxCell>
        <mxCell id="gnkaqfE58BtBJmnsjo4r-693" value="&lt;span style=&quot;color: rgb(40, 44, 51); font-family: Helvetica; font-size: 52px; font-style: normal; font-variant-ligatures: normal; font-variant-caps: normal; font-weight: 400; letter-spacing: normal; orphans: 2; text-align: center; text-indent: 0px; text-transform: none; widows: 2; word-spacing: 0px; -webkit-text-stroke-width: 0px; white-space: normal; background-color: rgb(251, 251, 251); text-decoration-thickness: initial; text-decoration-style: initial; text-decoration-color: initial; float: none; display: inline !important;&quot;&gt;&amp;lt;&amp;lt;include&amp;gt;&amp;gt;&lt;/span&gt;" style="text;whiteSpace=wrap;html=1;fontFamily=Helvetica;fontSize=52;strokeWidth=9;fillColor=none;" parent="1" vertex="1">
          <mxGeometry x="4090" y="-1920" width="460" height="120" as="geometry" />
        </mxCell>
        <mxCell id="gnkaqfE58BtBJmnsjo4r-697" style="edgeStyle=orthogonalEdgeStyle;rounded=0;orthogonalLoop=1;jettySize=auto;html=1;fontFamily=Helvetica;fontSize=12;fontColor=default;endArrow=none;endFill=0;strokeWidth=9;" parent="1" source="gnkaqfE58BtBJmnsjo4r-696" edge="1">
          <mxGeometry relative="1" as="geometry">
            <mxPoint x="6740" y="745" as="targetPoint" />
          </mxGeometry>
        </mxCell>
        <mxCell id="gnkaqfE58BtBJmnsjo4r-696" value="Realiza pagamentos de despesas e hóspedagem" style="html=1;overflow=block;blockSpacing=1;whiteSpace=wrap;ellipse;fontSize=52;spacing=3.8;rounded=1;absoluteArcSize=1;arcSize=9;fillColor=none;strokeWidth=9;lucidId=yNcdwA~H~~Sd;" parent="1" vertex="1">
          <mxGeometry x="5330" y="530" width="720" height="430" as="geometry" />
        </mxCell>
        <mxCell id="gnkaqfE58BtBJmnsjo4r-700" value="&lt;span style=&quot;color: rgb(40, 44, 51); font-family: Helvetica; font-size: 52px; font-style: normal; font-variant-ligatures: normal; font-variant-caps: normal; font-weight: 400; letter-spacing: normal; orphans: 2; text-align: center; text-indent: 0px; text-transform: none; widows: 2; word-spacing: 0px; -webkit-text-stroke-width: 0px; white-space: normal; background-color: rgb(251, 251, 251); text-decoration-thickness: initial; text-decoration-style: initial; text-decoration-color: initial; float: none; display: inline !important;&quot;&gt;&amp;lt;&amp;lt;include&amp;gt;&amp;gt;&lt;/span&gt;" style="text;whiteSpace=wrap;html=1;fontFamily=Helvetica;fontSize=52;strokeWidth=9;fillColor=none;" parent="1" vertex="1">
          <mxGeometry x="4080" y="-790" width="460" height="120" as="geometry" />
        </mxCell>
      </root>
    </mxGraphModel>
  </diagram>
</mxfile>
